M48
; DRILL file {KiCad (6.0.7)} date Sun Oct  9 18:49:56 2022
; FORMAT={-:-/ absolute / metric / decimal}
; #@! TF.CreationDate,2022-10-09T18:49:56+08:00
; #@! TF.GenerationSoftware,Kicad,Pcbnew,(6.0.7)
; #@! TF.FileFunction,Plated,1,2,PTH
FMAT,2
METRIC
; #@! TA.AperFunction,Plated,PTH,ComponentDrill
T1C0.800
; #@! TA.AperFunction,Plated,PTH,ComponentDrill
T2C1.000
; #@! TA.AperFunction,Plated,PTH,ComponentDrill
T3C1.100
; #@! TA.AperFunction,Plated,PTH,ComponentDrill
T4C1.300
; #@! TA.AperFunction,Plated,PTH,ComponentDrill
T5C4.600
%
G90
G05
T1
X128.15Y-89.475
X128.15Y-91.475
X128.16Y-82.025
X128.16Y-84.025
X129.84Y-99.22
X129.84Y-101.76
X129.84Y-104.3
X129.84Y-106.84
X137.46Y-99.22
X137.46Y-101.76
X137.46Y-104.3
X137.46Y-106.84
X146.37Y-82.38
X146.37Y-84.38
X147.1Y-90.4
X147.1Y-92.4
T2
X146.635Y-99.165
X146.635Y-101.705
X146.635Y-104.245
X149.175Y-99.165
X149.175Y-101.705
X149.175Y-104.245
X152.08Y-81.705
X152.08Y-84.245
X152.08Y-86.785
T3
X134.62Y-83.405
X134.62Y-92.205
X137.16Y-83.405
X137.16Y-92.205
X139.7Y-83.405
X139.7Y-92.205
T4
X108.89Y-97.86
X113.89Y-97.86
X118.89Y-97.86
T5
X141.63Y-71.67
X148.83Y-71.67
T0
M30
